<svg xmlns="http://www.w3.org/2000/svg" width="69" height="80" fill="none"><path fill="url(#a)" d="M34.486.004 15.33 19.997v40.004l19.156 19.993.008.004.006-.004 19.156-19.993V19.998L34.5.004 34.494 0l-.008.004Z"/><path fill="url(#b)" d="M13.339 60.807V19.192l.557-.58L28.271 3.608 0 20v39.999l28.27 16.392-14.374-15.004-.557-.58Z"/><path fill="url(#c)" d="M68.987 20 40.718 3.608l14.373 15.004.557.58V60.807l-.557.58L40.718 76.39l28.27-16.392v-40Z"/><defs><linearGradient id="a" x1="34.493" x2="34.493" y1="0" y2="79.998" gradientUnits="userSpaceOnUse"><stop stop-color="#2FBEDD"/><stop offset="1" stop-color="#5BD5EF"/></linearGradient><linearGradient id="b" x1="14.135" x2="14.135" y1="3.608" y2="76.391" gradientUnits="userSpaceOnUse"><stop stop-color="#2FBEDD"/><stop offset="1" stop-color="#2FBEDD"/></linearGradient><linearGradient id="c" x1="54.853" x2="54.853" y1="3.608" y2="76.391" gradientUnits="userSpaceOnUse"><stop stop-color="#2FBEDD"/><stop offset="1" stop-color="#2FBEDD"/></linearGradient></defs></svg>
